<svg width="35" height="35" viewBox="0 0 35 35" fill="none" xmlns="http://www.w3.org/2000/svg">
<path d="M13.7855 21.5131C12.307 20.0156 9.64292 19.5731 6.99322 20.9291C4.63933 22.1978 2.93112 24.6336 2.64113 27.1468C2.3479 29.9191 1.63515 32.2002 1.08296 33.0204L0.0179982 34.6016L1.72344 34.5401C2.14115 34.5255 2.5809 34.4932 3.03548 34.444C6.38115 34.0818 10.5523 32.7894 12.9725 30.5016C15.3541 28.2237 16.0672 23.8243 13.7854 21.5132L13.7855 21.5131Z" fill="white"/>
<path d="M18.6885 16.5666C17.7785 15.6444 16.7157 14.9603 15.5613 14.5054C14.3917 15.7199 13.2493 16.9451 12.1366 18.1632C13.3999 18.3935 14.5248 18.9588 15.4163 19.8649C16.3096 20.7673 16.8921 21.95 17.1252 23.2833C18.3143 22.1717 19.5128 21.0298 20.7207 19.8442C20.3008 18.6175 19.6253 17.4833 18.6885 16.5666V16.5666Z" fill="white"/>
<path d="M33.8177 0.533396C33.1212 -0.171021 31.5063 -0.162221 26.1866 4.3804C22.1676 7.70454 21.8337 8.11518 17.3628 12.6417L17.2717 12.7339L17.2687 12.7323L17.2428 12.7587C18.3668 13.2829 19.407 13.9911 20.3099 14.9064C21.2449 15.8211 21.9609 16.928 22.4654 18.1332L22.4973 18.1014L22.4939 18.0947L22.6224 17.9646L30.9533 8.02785C35.5205 2.34079 34.5158 1.2407 33.8176 0.53306L33.8177 0.533396Z" fill="white"/>
</svg>
