<svg width="32" height="29" viewBox="0 0 32 29" fill="none" xmlns="http://www.w3.org/2000/svg">
<path d="M30.5968 12.1285C31.2013 11.535 31.5408 10.7303 31.5408 9.89124C31.5408 9.05218 31.2013 8.24746 30.5968 7.65396L23.7421 0.928262C23.4425 0.633989 23.0867 0.400539 22.6951 0.241261C22.3035 0.0819828 21.8838 0 21.4598 0C21.0359 0 20.6162 0.0819828 20.2246 0.241261C19.833 0.400539 19.4772 0.633989 19.1776 0.928262L0.944054 18.8463C0.339565 19.4398 0 20.2445 0 21.0836C0 21.9227 0.339565 22.7274 0.944054 23.3209L2.48838 24.8361C2.57033 24.9148 2.63424 25.0097 2.67586 25.1145C2.71748 25.2193 2.73585 25.3316 2.72974 25.4439C2.72364 25.5562 2.6932 25.666 2.64045 25.7658C2.58771 25.8657 2.51387 25.9534 2.42387 26.023C2.17752 26.2362 2.00338 26.518 1.92471 26.8309C1.84605 27.1438 1.86662 27.4728 1.98368 27.7739C2.10073 28.075 2.30869 28.3339 2.57974 28.5159C2.85079 28.6979 3.17202 28.7944 3.50046 28.7924H21.2421C21.4678 28.7935 21.6912 28.748 21.8979 28.659C22.1046 28.5701 22.29 28.4395 22.442 28.2758C22.594 28.1121 22.7093 27.9189 22.7805 27.7087C22.8516 27.4985 22.877 27.276 22.855 27.0556C22.8044 26.6571 22.6056 26.291 22.2968 26.0274C21.988 25.7638 21.5909 25.6214 21.1816 25.6274H18.8107C18.6513 25.6275 18.4955 25.5813 18.3629 25.4946C18.2303 25.4079 18.1268 25.2847 18.0656 25.1403C18.0043 24.996 17.988 24.8371 18.0187 24.6837C18.0494 24.5302 18.1258 24.3892 18.2381 24.2783L30.5968 12.1285ZM13.4882 24.4366C13.0387 24.8792 12.5045 25.2303 11.9164 25.47C11.3282 25.7096 10.6977 25.8329 10.0608 25.8329C9.424 25.8329 8.79344 25.7096 8.20529 25.47C7.61715 25.2303 7.083 24.8792 6.63347 24.4366L3.79481 21.6434C3.71983 21.5699 3.66035 21.4827 3.61977 21.3866C3.57918 21.2905 3.55829 21.1876 3.55829 21.0836C3.55829 20.9796 3.57918 20.8766 3.61977 20.7806C3.66035 20.6845 3.71983 20.5973 3.79481 20.5238L11.7786 12.6903C11.8534 12.6168 11.9424 12.5584 12.0403 12.5186C12.1382 12.4788 12.2431 12.4583 12.3491 12.4583C12.4551 12.4583 12.56 12.4788 12.6579 12.5186C12.7558 12.5584 12.8448 12.6168 12.9197 12.6903L18.6212 18.2845C18.6962 18.358 18.7556 18.4453 18.7962 18.5413C18.8368 18.6374 18.8577 18.7404 18.8577 18.8443C18.8577 18.9483 18.8368 19.0513 18.7962 19.1473C18.7556 19.2434 18.6962 19.3307 18.6212 19.4042L13.4882 24.4366Z" fill="white"/>
</svg>
