<svg width="44" height="40" viewBox="0 0 44 40" fill="none" xmlns="http://www.w3.org/2000/svg">
<path d="M3.50493 39.25C4.01891 39.265 4.52251 39.1034 4.93189 38.7923C5.34127 38.4812 5.63174 38.0392 5.75493 37.54C6.76802 33.526 8.99894 29.924 12.1413 27.2288C15.2837 24.5336 19.1834 22.8774 23.3049 22.4875V25.0075C23.3053 25.7956 23.5382 26.5661 23.9744 27.2225C24.4107 27.8789 25.0309 28.392 25.7574 28.6975C26.5452 29.0596 27.4209 29.1865 28.2791 29.0627C29.1373 28.939 29.9415 28.5699 30.5949 28L41.9799 18.0775C42.4165 17.7057 42.7671 17.2436 43.0076 16.723C43.248 16.2025 43.3726 15.6359 43.3726 15.0625C43.3726 14.4891 43.248 13.9225 43.0076 13.4019C42.7671 12.8814 42.4165 12.4192 41.9799 12.0475L30.5949 2.10248C29.9329 1.52268 29.1154 1.14972 28.2436 1.02975C27.3718 0.909776 26.484 1.04806 25.6899 1.42748C24.9634 1.733 24.3432 2.24607 23.9069 2.90246C23.4707 3.55884 23.2378 4.32935 23.2374 5.11748V7.74998C17.1259 8.2225 11.4135 10.9685 7.2274 15.4462C3.04127 19.9239 0.685491 25.8081 0.624928 31.9375C0.628009 33.8264 0.862249 35.7079 1.32243 37.54C1.44562 38.0392 1.73608 38.4812 2.14547 38.7923C2.55485 39.1034 3.05845 39.265 3.57243 39.25H3.50493Z" fill="white"/>
</svg>
