<svg width="44" height="40" viewBox="0 0 44 40" fill="none" xmlns="http://www.w3.org/2000/svg">
<path d="M40.4951 39.25C39.9811 39.265 39.4775 39.1034 39.0681 38.7923C38.6587 38.4812 38.3683 38.0392 38.2451 37.54C37.232 33.526 35.0011 29.924 31.8587 27.2288C28.7163 24.5336 24.8166 22.8774 20.6951 22.4875V25.0075C20.6947 25.7956 20.4618 26.5661 20.0256 27.2225C19.5893 27.8789 18.9691 28.392 18.2426 28.6975C17.4548 29.0596 16.5791 29.1865 15.7209 29.0627C14.8627 28.939 14.0585 28.5699 13.4051 28L2.02007 18.0775C1.5835 17.7057 1.23287 17.2436 0.992419 16.723C0.75197 16.2025 0.627441 15.6359 0.627441 15.0625C0.627441 14.4891 0.75197 13.9225 0.992419 13.4019C1.23287 12.8814 1.5835 12.4192 2.02007 12.0475L13.4051 2.10248C14.0671 1.52268 14.8846 1.14972 15.7564 1.02975C16.6282 0.909776 17.516 1.04806 18.3101 1.42748C19.0366 1.733 19.6568 2.24607 20.0931 2.90246C20.5293 3.55884 20.7622 4.32935 20.7626 5.11748V7.74998C26.8741 8.2225 32.5865 10.9685 36.7726 15.4462C40.9587 19.9239 43.3145 25.8081 43.3751 31.9375C43.372 33.8264 43.1378 35.7079 42.6776 37.54C42.5544 38.0392 42.2639 38.4812 41.8545 38.7923C41.4452 39.1034 40.9416 39.265 40.4276 39.25H40.4951Z" fill="white"/>
</svg>
