<svg width="25" height="25" viewBox="0 0 35 33" fill="none" xmlns="http://www.w3.org/2000/svg">
    <path d="M16.3482 32.2144L29.5824 19.0972C30.6204 18.0684 30.6204 16.5252 29.5824 15.4964L14.5317 0.578703C13.7532 -0.192901 12.7153 -0.192901 11.9368 0.578703C11.1583 1.35031 11.1583 2.37911 11.9368 3.15071L13.2342 4.43672L0.778485 16.7824C-0.259495 17.8112 -0.259495 19.3544 0.778485 20.3832L12.7153 32.2144C13.7532 33.2433 15.3102 33.2433 16.3482 32.2144V32.2144ZM16.7374 7.90894L24.0033 15.1106C24.7818 15.8822 24.2628 17.2968 23.0951 17.2968H8.56334C7.39561 17.2968 6.87662 15.8822 7.6551 15.1106L14.921 7.90894C15.44 7.39453 16.2184 7.39453 16.7374 7.90894Z" fill="white"/>
    <path d="M31.3989 31.4429C33.7344 31.4429 35.1616 28.9995 33.9939 26.9419L31.3989 22.4409L28.804 26.9419C27.6363 28.9995 29.0635 31.4429 31.3989 31.4429Z" fill="white"/>
</svg>  